<?xml version="1.0" encoding="UTF-8"?> <svg xmlns="http://www.w3.org/2000/svg" width="938" height="201" viewBox="0 0 938 201" fill="none"><path d="M96.9027 117.468L0.667104 80.0729C1.94328 87.5983 2.78441 95.2684 2.78441 103.17C2.78441 112.75 1.79825 122.07 0 131.101L212.571 201C221.243 169.856 226 137.063 226 103.141C226 70.9267 221.62 39.7542 213.731 10L96.9027 117.468Z" fill="#0361AD"></path><path d="M94.9931 99L203 0L6 64.5451L94.9931 99Z" fill="#0361AD"></path><path d="M383.887 144.743H370.283V92.0224C370.283 90.2135 370.132 88.7062 369.831 87.5002C369.529 86.2943 368.908 85.0507 367.947 83.7883C366.986 82.5259 365.384 81.5837 363.104 80.9243C360.843 80.2648 357.998 79.9445 354.569 79.9445C346.617 79.9445 341.492 80.8112 339.231 82.507C336.97 84.2217 335.839 87.3872 335.839 92.0224V144.743H322.235V92.0224C322.235 90.2135 322.084 88.7062 321.783 87.5002C321.481 86.2943 320.86 85.0507 319.899 83.7883C318.938 82.5259 317.355 81.5837 315.15 80.9243C312.927 80.2648 310.119 79.9445 306.69 79.9445C298.626 79.9445 293.256 80.7735 290.599 82.4316C287.923 84.0898 286.604 87.293 286.604 92.0224V144.743H273V71.6161H286.604V80.5286C288.017 73.5758 296.214 70.1088 311.231 70.1088C323.422 70.1088 331.016 73.425 334.049 80.0764C335.048 76.647 337.893 74.141 342.585 72.5206C347.258 70.919 352.778 70.1088 359.128 70.1088C368.493 70.1088 374.956 71.8422 378.536 75.3281C382.116 78.7951 383.906 84.0709 383.906 91.118V144.743H383.887Z" fill="#0361AD"></path><path d="M465.173 144.743H452.021V137.79C450.909 143.424 443.561 146.251 429.957 146.251C419.895 146.251 412.904 144.724 409.042 141.653C405.16 138.582 403.219 132.364 403.219 122.999C403.219 114.84 405.028 109.225 408.646 106.154C412.264 103.083 419.273 101.538 429.655 101.538H451.569V89.912C451.569 85.8798 450.325 83.1665 447.876 81.7533C445.407 80.3401 440.753 79.643 433.895 79.643C426.433 79.643 418.086 80.2459 408.816 81.4518V71.4842C418.783 70.5798 427.809 70.1276 435.854 70.1276C448.14 70.1276 456.091 71.6161 459.728 74.5932C463.345 77.5703 465.173 83.7317 465.173 93.0964V144.743ZM451.569 129.933V109.998H430.579C424.323 109.998 420.422 110.808 418.877 112.41C417.314 114.03 416.541 117.704 416.541 123.433C416.541 128.577 417.37 132.175 419.028 134.229C420.686 136.283 424.191 137.319 429.523 137.319H432.237C434.856 137.319 437.041 137.263 438.813 137.169C440.584 137.074 442.562 136.792 444.786 136.34C447.009 135.887 448.686 135.134 449.854 134.078C450.985 133.042 451.569 131.648 451.569 129.933Z" fill="#0361AD"></path><path d="M502.33 59.3874H488.726V45.1803H502.33V59.3874ZM502.33 144.743H488.726V71.6161H502.33V144.743Z" fill="#0361AD"></path><path d="M539.487 144.743H525.883V39H539.487V144.743Z" fill="#0361AD"></path><path d="M625.446 71.635V151.696C625.446 162.078 622.544 169.05 616.76 172.63C610.975 176.21 602.289 178 590.701 178C580.319 178 571.915 177.454 565.471 176.342V166.676C577.059 168.089 585.877 168.786 591.907 168.786C598.86 168.786 603.928 167.674 607.094 165.47C610.278 163.247 611.861 159.572 611.861 154.447V136.924C611.654 140.353 609.317 142.765 604.833 144.178C600.348 145.591 595.242 146.288 589.514 146.288C578.227 146.288 570.558 144.63 566.47 141.295C562.381 137.979 560.346 132.232 560.346 124.073V94.3212C560.346 85.6537 562.682 79.4546 567.374 75.7427C572.047 72.0119 579.735 70.1465 590.418 70.1465C603.118 70.1465 610.561 73.0105 612.784 78.7575V71.6539H625.446V71.635ZM611.861 124.959V91.8717C611.861 87.1423 610.579 83.8826 608.017 82.1302C605.454 80.3779 600.141 79.4923 592.076 79.4923C584.521 79.4923 579.584 80.3591 577.285 82.0549C574.967 83.7695 573.799 87.0481 573.799 91.8717V124.959C573.799 129.99 575.043 133.287 577.511 134.851C579.979 136.415 584.935 137.188 592.397 137.188C599.236 137.188 604.211 136.359 607.282 134.7C610.316 133.042 611.861 129.783 611.861 124.959Z" fill="#0361AD"></path><path d="M706.732 144.743H693.58V137.79C692.468 143.424 685.12 146.251 671.535 146.251C661.473 146.251 654.482 144.724 650.601 141.653C646.719 138.582 644.778 132.364 644.778 122.999C644.778 114.84 646.587 109.225 650.205 106.154C653.823 103.083 660.832 101.538 671.214 101.538H693.128V89.912C693.128 85.8798 691.884 83.1665 689.416 81.7533C686.948 80.3401 682.293 79.643 675.454 79.643C667.992 79.643 659.645 80.2459 650.375 81.4518V71.4842C660.342 70.5798 669.368 70.1276 677.413 70.1276C689.699 70.1276 697.65 71.6161 701.287 74.5932C704.904 77.5703 706.713 83.7317 706.713 93.0964V144.743H706.732ZM693.128 129.933V109.998H672.137C665.882 109.998 661.981 110.808 660.436 112.41C658.872 114.03 658.1 117.704 658.1 123.433C658.1 128.577 658.929 132.175 660.587 134.229C662.245 136.283 665.75 137.319 671.082 137.319H673.814C676.434 137.319 678.619 137.263 680.39 137.169C682.162 137.074 684.14 136.792 686.345 136.34C688.568 135.887 690.245 135.134 691.413 134.078C692.544 133.042 693.128 131.648 693.128 129.933Z" fill="#0361AD"></path><path d="M793.294 144.743H779.69V91.8717C779.69 90.0628 779.539 88.5554 779.237 87.3495C778.936 86.1436 778.314 84.9 777.353 83.6376C776.392 82.3751 774.791 81.433 772.511 80.7735C770.25 80.114 767.404 79.7937 763.975 79.7937C756.024 79.7937 750.672 80.6605 747.959 82.3563C745.227 84.0709 743.87 87.2364 743.87 91.8717V144.743H730.266V71.6161H743.87V80.5286C745.283 73.5758 753.291 70.1088 767.894 70.1088C777.56 70.1088 784.212 71.8422 787.829 75.3281C791.447 78.8139 793.256 84.0709 793.256 91.118V144.743H793.294Z" fill="#0361AD"></path><path d="M876.991 111.204H827.888V122.227C827.888 127.371 829.697 131.007 833.315 133.174C836.933 135.341 842.321 136.415 849.482 136.415C856.434 136.415 864.631 135.209 874.109 132.797V143.217C865.045 145.233 856.227 146.232 847.673 146.232C825.326 146.232 814.133 138.789 814.133 123.866V95.0183C814.133 86.0493 816.696 79.6618 821.84 75.8368C826.984 72.0118 835.18 70.0898 846.467 70.0898C857.037 70.0898 864.763 71.9176 869.662 75.6107C874.542 79.2849 876.991 85.7667 876.991 95.0183V111.204ZM863.387 102.291V90.8164C863.387 86.3885 862.031 83.336 859.298 81.6779C856.585 80.0198 852.063 79.1907 845.694 79.1907C839.646 79.1907 835.18 80.0009 832.26 81.6025C829.339 83.223 827.888 86.2754 827.888 90.8164V102.291H863.387Z" fill="#0361AD"></path><path d="M937.117 81.7533H929.562C923.306 81.7533 918.708 82.5635 915.731 84.1651C912.773 85.7856 911.266 88.8004 911.266 93.2283V144.743H897.661V71.6161H910.512V83.5433C910.512 80.0198 912.698 76.892 917.088 74.1787C921.478 71.4654 925.925 70.1088 930.466 70.1088H937.117V81.7533Z" fill="#0361AD"></path></svg> 